<svg width="25" height="24" viewBox="0 0 25 24" fill="none" xmlns="http://www.w3.org/2000/svg">
<path d="M0 3C0 1.34315 1.34315 0 3 0H22C23.6569 0 25 1.34315 25 3V21C25 22.6569 23.6569 24 22 24H3C1.34315 24 0 22.6569 0 21V3Z" fill="#0177FB"/>
<path d="M12.13 18.12C11.042 18.12 10.114 17.856 9.346 17.328C8.578 16.784 7.978 16.096 7.546 15.264C7.434 15.04 7.378 14.888 7.378 14.808C7.378 14.584 7.474 14.392 7.666 14.232C7.874 14.056 8.098 13.968 8.338 13.968C8.498 13.968 8.618 14.016 8.698 14.112C8.794 14.192 8.922 14.344 9.082 14.568C9.482 15.176 9.906 15.664 10.354 16.032C10.802 16.384 11.394 16.56 12.13 16.56C12.818 16.56 13.386 16.392 13.834 16.056C14.298 15.72 14.53 15.296 14.53 14.784C14.53 14.416 14.402 14.104 14.146 13.848C13.906 13.592 13.602 13.384 13.234 13.224C12.882 13.064 12.37 12.864 11.698 12.624C10.85 12.32 10.162 12.048 9.634 11.808C9.122 11.552 8.682 11.2 8.314 10.752C7.946 10.288 7.762 9.704 7.762 9C7.762 8.376 7.93 7.8 8.266 7.272C8.618 6.728 9.114 6.296 9.754 5.976C10.394 5.656 11.13 5.496 11.962 5.496C12.794 5.496 13.53 5.656 14.17 5.976C14.81 6.296 15.306 6.72 15.658 7.248C16.01 7.776 16.186 8.36 16.186 9C16.186 9.32 16.122 9.552 15.994 9.696C15.882 9.84 15.674 9.912 15.37 9.912C15.05 9.912 14.834 9.856 14.722 9.744C14.626 9.616 14.57 9.456 14.554 9.264C14.49 8.512 14.226 7.96 13.762 7.608C13.298 7.24 12.698 7.056 11.962 7.056C11.098 7.056 10.482 7.264 10.114 7.68C9.762 8.08 9.586 8.512 9.586 8.976C9.586 9.52 9.818 9.944 10.282 10.248C10.762 10.536 11.498 10.856 12.49 11.208C13.338 11.512 14.018 11.792 14.53 12.048C15.042 12.304 15.474 12.656 15.826 13.104C16.194 13.552 16.378 14.112 16.378 14.784C16.378 15.824 15.97 16.64 15.154 17.232C14.338 17.824 13.33 18.12 12.13 18.12Z" fill="white"/>
<line x1="10.917" y1="3.5" x2="10.917" y2="19.5" stroke="white" stroke-linecap="round"/>
<line x1="13" y1="3.5" x2="13" y2="19.5" stroke="white" stroke-linecap="round"/>
</svg>
