<svg width="23" height="24" viewBox="0 0 23 24" fill="none" xmlns="http://www.w3.org/2000/svg">
<path d="M10.625 3H3.91667C3.40833 3 2.92082 3.21071 2.56138 3.58579C2.20193 3.96086 2 4.46957 2 5V19C2 19.5304 2.20193 20.0391 2.56138 20.4142C2.92082 20.7893 3.40833 21 3.91667 21H17.3333C17.8417 21 18.3292 20.7893 18.6886 20.4142C19.0481 20.0391 19.25 19.5304 19.25 19V12" stroke="#9B9B9B" stroke-width="1.4" stroke-linecap="round" stroke-linejoin="round"/>
<path d="M17.7285 2.50023C18.1098 2.1024 18.6268 1.87891 19.166 1.87891C19.7052 1.87891 20.2223 2.1024 20.6035 2.50023C20.9848 2.89805 21.1989 3.43762 21.1989 4.00023C21.1989 4.56284 20.9848 5.1024 20.6035 5.50023L11.4993 15.0002L7.66602 16.0002L8.62435 12.0002L17.7285 2.50023Z" stroke="#9B9B9B" stroke-width="1.4" stroke-linecap="round" stroke-linejoin="round"/>
</svg>
