<svg width="24" height="24" viewBox="0 0 24 24" fill="none" xmlns="http://www.w3.org/2000/svg">
<path d="M11.9995 7C11.7343 7 11.4799 7.10536 11.2924 7.29289C11.1049 7.48043 10.9995 7.73478 10.9995 8V12C10.9995 12.2652 11.1049 12.5196 11.2924 12.7071C11.4799 12.8946 11.7343 13 11.9995 13C12.2647 13 12.5191 12.8946 12.7066 12.7071C12.8942 12.5196 12.9995 12.2652 12.9995 12V8C12.9995 7.73478 12.8942 7.48043 12.7066 7.29289C12.5191 7.10536 12.2647 7 11.9995 7ZM12.9195 15.62C12.8976 15.5563 12.8674 15.4957 12.8295 15.44L12.7095 15.29C12.5689 15.1512 12.3903 15.0572 12.1963 15.0199C12.0023 14.9825 11.8016 15.0034 11.6195 15.08C11.4983 15.1306 11.3867 15.2017 11.2895 15.29C11.1968 15.3834 11.1235 15.4943 11.0737 15.6161C11.024 15.7379 10.9988 15.8684 10.9995 16C11.0011 16.1307 11.0283 16.2598 11.0795 16.38C11.1244 16.5041 11.1961 16.6168 11.2894 16.7101C11.3827 16.8034 11.4954 16.8751 11.6195 16.92C11.7392 16.9729 11.8686 17.0002 11.9995 17.0002C12.1304 17.0002 12.2598 16.9729 12.3795 16.92C12.5036 16.8751 12.6163 16.8034 12.7096 16.7101C12.803 16.6168 12.8746 16.5041 12.9195 16.38C12.9708 16.2598 12.9979 16.1307 12.9995 16C13.0044 15.9334 13.0044 15.8666 12.9995 15.8C12.9823 15.7362 12.9553 15.6755 12.9195 15.62ZM11.9995 2C10.0217 2 8.08831 2.58649 6.44381 3.6853C4.79932 4.78412 3.5176 6.3459 2.76072 8.17317C2.00384 10.0004 1.80581 12.0111 2.19166 13.9509C2.57752 15.8907 3.52992 17.6725 4.92845 19.0711C6.32697 20.4696 8.1088 21.422 10.0486 21.8079C11.9884 22.1937 13.9991 21.9957 15.8264 21.2388C17.6536 20.4819 19.2154 19.2002 20.3142 17.5557C21.413 15.9112 21.9995 13.9778 21.9995 12C21.9995 10.6868 21.7409 9.38642 21.2383 8.17317C20.7358 6.95991 19.9992 5.85752 19.0706 4.92893C18.142 4.00035 17.0396 3.26375 15.8264 2.7612C14.6131 2.25866 13.3127 2 11.9995 2ZM11.9995 20C10.4173 20 8.87055 19.5308 7.55495 18.6518C6.23936 17.7727 5.21398 16.5233 4.60848 15.0615C4.00298 13.5997 3.84455 11.9911 4.15323 10.4393C4.46192 8.88743 5.22384 7.46197 6.34266 6.34315C7.46148 5.22433 8.88695 4.4624 10.4388 4.15372C11.9906 3.84504 13.5992 4.00346 15.061 4.60896C16.5228 5.21447 17.7722 6.23985 18.6513 7.55544C19.5303 8.87103 19.9995 10.4178 19.9995 12C19.9995 14.1217 19.1567 16.1566 17.6564 17.6569C16.1561 19.1571 14.1213 20 11.9995 20Z" fill="#9B9B9B"/>
</svg>
