<svg width="25" height="25" viewBox="0 0 25 25" fill="none" xmlns="http://www.w3.org/2000/svg">
<path d="M12.4997 13.5413C13.075 13.5413 13.5413 13.075 13.5413 12.4997C13.5413 11.9244 13.075 11.458 12.4997 11.458C11.9244 11.458 11.458 11.9244 11.458 12.4997C11.458 13.075 11.9244 13.5413 12.4997 13.5413Z" stroke="#B4B4B4" stroke-width="2" stroke-linecap="round" stroke-linejoin="round"/>
<path d="M12.4997 6.25033C13.075 6.25033 13.5413 5.78396 13.5413 5.20866C13.5413 4.63336 13.075 4.16699 12.4997 4.16699C11.9244 4.16699 11.458 4.63336 11.458 5.20866C11.458 5.78396 11.9244 6.25033 12.4997 6.25033Z" stroke="#B4B4B4" stroke-width="2" stroke-linecap="round" stroke-linejoin="round"/>
<path d="M12.4997 20.8333C13.075 20.8333 13.5413 20.367 13.5413 19.7917C13.5413 19.2164 13.075 18.75 12.4997 18.75C11.9244 18.75 11.458 19.2164 11.458 19.7917C11.458 20.367 11.9244 20.8333 12.4997 20.8333Z" stroke="#B4B4B4" stroke-width="2" stroke-linecap="round" stroke-linejoin="round"/>
</svg>
