<svg width="32" height="30" viewBox="0 0 32 30" fill="none" xmlns="http://www.w3.org/2000/svg">
<path d="M0 3C0 1.34315 1.34315 0 3 0H29C30.6569 0 32 1.34315 32 3V27C32 28.6569 30.6569 30 29 30H3C1.34315 30 0 28.6569 0 27V3Z" fill="#F2F2F2"/>
<path d="M16.3831 13.5833C14.1532 13.0917 13.4361 12.5833 13.4361 11.7917C13.4361 10.8833 14.4283 10.25 16.0884 10.25C17.8369 10.25 18.4853 10.9583 18.5442 12H20.7151C20.6464 10.5667 19.6149 9.25 17.5619 8.825V7H14.6149V8.8C12.7092 9.15 11.1768 10.2 11.1768 11.8083C11.1768 13.7333 13.053 14.6917 15.7937 15.25C18.2495 15.75 18.7407 16.4833 18.7407 17.2583C18.7407 17.8333 18.2593 18.75 16.0884 18.75C14.0648 18.75 13.2692 17.9833 13.1611 17H11C11.1179 18.825 12.7289 19.85 14.6149 20.1917V22H17.5619V20.2083C19.4774 19.9 21 18.9583 21 17.25C21 14.8833 18.613 14.075 16.3831 13.5833Z" fill="#D9D9D9"/>
<line x1="14.832" y1="4.25" x2="14.832" y2="24.5" stroke="#D9D9D9" stroke-linecap="round"/>
<line x1="17.5" y1="4.25" x2="17.5" y2="24.5" stroke="#D9D9D9" stroke-linecap="round"/>
<path d="M3 1H29V-1H3V1ZM31 3V27H33V3H31ZM29 29H3V31H29V29ZM1 27V3H-1V27H1ZM3 29C1.89543 29 1 28.1046 1 27H-1C-1 29.2091 0.790861 31 3 31V29ZM31 27C31 28.1046 30.1046 29 29 29V31C31.2091 31 33 29.2091 33 27H31ZM29 1C30.1046 1 31 1.89543 31 3H33C33 0.790861 31.2091 -1 29 -1V1ZM3 -1C0.790861 -1 -1 0.790862 -1 3H1C1 1.89543 1.89543 1 3 1V-1Z" fill="#B4B4B4"/>
</svg>
