<svg width="77" height="80" viewBox="0 0 77 80" fill="none" xmlns="http://www.w3.org/2000/svg">
<g filter="url(#filter0_d_952_4110)">
<path d="M69.5919 31.9444C69.5919 49.1111 55.6755 63.0274 38.5088 63.0274C21.3421 63.0274 7.42578 49.1111 7.42578 31.9444C7.42578 14.7777 21.3421 0.861328 38.5088 0.861328C55.6755 0.861328 69.5919 14.7777 69.5919 31.9444ZM13.6424 31.9444C13.6424 45.6777 24.7755 56.8108 38.5088 56.8108C52.2422 56.8108 63.3753 45.6777 63.3753 31.9444C63.3753 18.211 52.2422 7.07794 38.5088 7.07794C24.7755 7.07794 13.6424 18.211 13.6424 31.9444Z" fill="white"/>
<path d="M44.6961 25.7598L32.3242 38.1316M32.3242 38.1316V25.7598M32.3242 38.1316H44.6961" stroke="#3B3B3B" stroke-width="1.6508" stroke-linecap="round" stroke-linejoin="round"/>
<path d="M38.5088 3.96963C38.5088 2.25296 39.9039 0.845215 41.612 1.01659C47.2357 1.5808 52.6207 3.6707 57.1717 7.08774C62.5544 11.1292 66.4798 16.8087 68.3577 23.2725C70.2356 29.7363 69.9645 36.635 67.5853 42.9315C65.206 49.228 60.8472 54.582 55.164 58.1887C49.4808 61.7953 42.7804 63.4597 36.0701 62.9316C29.3598 62.4035 23.0023 59.7114 17.9532 55.2601C12.9042 50.8088 9.43657 44.8388 8.0716 38.2476C6.91752 32.6748 7.31932 26.9125 9.20325 21.5838C9.77546 19.9653 11.6432 19.3024 13.1965 20.0333C14.7498 20.7642 15.3961 22.6123 14.8645 24.2446C13.5304 28.3414 13.2781 32.7332 14.159 36.987C15.251 42.2599 18.0251 47.0359 22.0644 50.597C26.1036 54.158 31.1896 56.3117 36.5578 56.7342C41.9261 57.1567 47.2864 55.8251 51.8329 52.9398C56.3795 50.0545 59.8666 45.7712 61.77 40.734C63.6734 35.6968 63.8902 30.1779 62.3879 25.0069C60.8856 19.8358 57.7453 15.2922 53.4391 12.0591C49.9653 9.45081 45.8841 7.80911 41.6091 7.27193C39.9059 7.05791 38.5088 5.6863 38.5088 3.96963Z" fill="url(#paint0_linear_952_4110)"/>
</g>
<defs>
<filter id="filter0_d_952_4110" x="0.251948" y="0.861328" width="76.5156" height="78.3071" filterUnits="userSpaceOnUse" color-interpolation-filters="sRGB">
<feFlood flood-opacity="0" result="BackgroundImageFix"/>
<feColorMatrix in="SourceAlpha" type="matrix" values="0 0 0 0 0 0 0 0 0 0 0 0 0 0 0 0 0 0 127 0" result="hardAlpha"/>
<feOffset dy="8.96729"/>
<feGaussianBlur stdDeviation="3.58692"/>
<feColorMatrix type="matrix" values="0 0 0 0 0.290196 0 0 0 0 0.168627 0 0 0 0 0.862745 0 0 0 0.0981481 0"/>
<feBlend mode="normal" in2="BackgroundImageFix" result="effect1_dropShadow_952_4110"/>
<feBlend mode="normal" in="SourceGraphic" in2="effect1_dropShadow_952_4110" result="shape"/>
</filter>
<linearGradient id="paint0_linear_952_4110" x1="38.5088" y1="0.861328" x2="38.5088" y2="63.0274" gradientUnits="userSpaceOnUse">
<stop stop-color="#8885EA"/>
<stop offset="1" stop-color="#5E5AFF"/>
</linearGradient>
</defs>
</svg>
