<svg width="45" height="24" viewBox="0 0 45 24" fill="none" xmlns="http://www.w3.org/2000/svg">
<path d="M40.7274 20.4471C40.2716 19.1713 39.2672 18.0439 37.8701 17.2399C36.4729 16.4358 34.7611 16 33 16C31.2389 16 29.5271 16.4358 28.1299 17.2399C26.7328 18.0439 25.7284 19.1713 25.2726 20.4471" stroke="#D9D9D9" stroke-width="2" stroke-linecap="round"/>
<circle cx="33" cy="8" r="4" stroke="#D9D9D9" stroke-width="2" stroke-linecap="round"/>
<path d="M19.7274 20.4471C19.2716 19.1713 18.2672 18.0439 16.8701 17.2399C15.4729 16.4358 13.7611 16 12 16C10.2389 16 8.52706 16.4358 7.12991 17.2399C5.73276 18.0439 4.72839 19.1713 4.27259 20.4471" stroke="#D9D9D9" stroke-width="2" stroke-linecap="round"/>
<circle cx="12" cy="8" r="4" stroke="#D9D9D9" stroke-width="2" stroke-linecap="round"/>
<path d="M30.6535 20.4054C31.2063 20.2902 31.5355 19.7117 31.2608 19.2183C30.6552 18.1307 29.7012 17.1749 28.4808 16.4465C26.909 15.5085 24.9831 15 23.0019 15C21.0207 15 19.0949 15.5085 17.5231 16.4465C16.3026 17.1749 15.3486 18.1307 14.743 19.2183C14.4683 19.7117 14.7976 20.2902 15.3504 20.4054V20.4054C20.3972 21.4572 25.6067 21.4572 30.6535 20.4054V20.4054Z" fill="#B4B4B4"/>
<circle cx="23" cy="8" r="5" fill="#B4B4B4"/>
</svg>
