<svg width="29" height="29" viewBox="0 0 29 29" fill="none" xmlns="http://www.w3.org/2000/svg">
<path d="M6.33053 16.4808C6.81244 18.2794 7.87434 19.8686 9.35154 21.0021C10.8287 22.1356 12.6387 22.75 14.5007 22.75C16.3626 22.75 18.1726 22.1356 19.6498 21.0021C21.127 19.8686 22.1889 18.2794 22.6708 16.4808" stroke="white" stroke-width="2"/>
<path d="M14.5003 4.2915L15.125 3.51064L14.5003 3.01088L13.8756 3.51064L14.5003 4.2915ZM13.5003 15.1665C13.5003 15.7188 13.948 16.1665 14.5003 16.1665C15.0526 16.1665 15.5003 15.7188 15.5003 15.1665L13.5003 15.1665ZM21.1667 8.34397L15.125 3.51064L13.8756 5.07237L19.9173 9.90571L21.1667 8.34397ZM13.8756 3.51064L7.83396 8.34397L9.08335 9.90571L15.125 5.07237L13.8756 3.51064ZM13.5003 4.2915L13.5003 15.1665L15.5003 15.1665L15.5003 4.2915L13.5003 4.2915Z" fill="white"/>
</svg>
